<svg width="30" height="30" viewBox="0 0 30 30" fill="none" xmlns="http://www.w3.org/2000/svg">
<rect width="30" height="30" rx="15" fill="#F12323"/>
<path d="M25 13.6999V16.4956L5 16.4956V13.6999L25 13.6999Z" fill="#0011FF"/>
<path d="M7.81502 21.2581C7.66814 19.767 7.57838 18.19 7.54574 16.5269L7.64366 13.7312C7.80686 10.9211 8.25566 8.77061 8.99005 7.27957C9.72444 5.75986 10.671 5 11.8297 5C12.6947 5 13.3883 5.35842 13.9105 6.07527C14.449 6.79211 14.8978 7.81004 15.2569 9.12903C15.6159 10.4194 15.9586 11.9534 16.285 13.7312L16.8481 16.5269C17.0113 17.5305 17.1826 18.319 17.3621 18.8925C17.558 19.4659 17.7865 19.8817 18.0476 20.1398C18.325 20.3978 18.6433 20.5269 19.0023 20.5269C19.3287 20.5269 19.6143 20.3835 19.8591 20.0968C20.1039 19.7814 20.2997 19.3369 20.4466 18.7634C20.6098 18.1613 20.7077 17.4158 20.7404 16.5269L20.7893 13.7312C20.7404 12.6416 20.6343 11.5376 20.4711 10.4194C20.3242 9.2724 20.1365 8.21147 19.908 7.23656L22.0133 5.8172C22.2907 6.96416 22.5111 8.18279 22.6743 9.47312C22.8538 10.7634 22.9517 12.1828 22.968 13.7312L22.9435 16.5269C22.8783 18.2186 22.6743 19.7097 22.3315 21C21.9888 22.2616 21.5237 23.2509 20.9362 23.9677C20.365 24.6559 19.6796 25 18.8799 25C18.2924 25 17.7701 24.8423 17.3132 24.5269C16.8562 24.1828 16.4482 23.681 16.0892 23.0215C15.7465 22.3333 15.4282 21.4588 15.1345 20.3978C14.8407 19.3082 14.5633 18.0179 14.3022 16.5269L13.7391 13.7312C13.5596 12.6703 13.3801 11.8387 13.2006 11.2366C13.0211 10.6057 12.8089 10.1613 12.5641 9.90323C12.3193 9.61649 12.0255 9.47312 11.6828 9.47312C11.1769 9.47312 10.7608 9.8172 10.4344 10.5054C10.1243 11.1649 9.92028 12.2401 9.82236 13.7312L9.72444 16.5269C9.74076 17.9892 9.855 19.509 10.0672 21.086C10.2956 22.6344 10.5486 23.9247 10.826 24.957L8.42702 24.957C8.1659 23.9534 7.9619 22.7204 7.81502 21.2581Z" fill="white"/>
</svg>
