<svg width="30" height="30" viewBox="0 0 30 30" fill="none" xmlns="http://www.w3.org/2000/svg">
<rect width="30" height="30" fill="#818181"/>
<path d="M16.6659 10.7949L16.2154 17.822L15.3539 17.9753L13.9037 14.6943L8.4722 23.7678L7.69922 23.305L14.0244 12.7388L15.434 15.9281L15.7668 10.7373L16.6659 10.7949Z" fill="#00FF4C"/>
<path d="M17.5145 7.51273C18.4192 6.87687 19.354 6.68702 20.2591 6.83032C21.146 6.97074 21.9612 7.42338 22.6711 7.99639C24.0851 9.13783 25.2106 10.8619 25.8203 12.0929L26.0429 12.5424L21.5753 15.4381L19.7137 13.4226L20.828 22.4965L11.3067 24.0405V13.6208L9.07372 16.9788L3.7793 13.3923L11.5829 7.19609L11.9359 7.60581C12.2507 7.97101 12.925 8.4531 13.8725 8.59377C14.8019 8.73173 16.0418 8.54784 17.5145 7.51273ZM20.083 7.94259C19.4746 7.84627 18.8339 7.9618 18.162 8.43404C16.4816 9.61513 14.9549 9.89294 13.7071 9.70771C12.7541 9.56623 11.991 9.15831 11.4719 8.72208L5.68091 13.3202L8.76491 15.4094L12.4328 9.89356V22.7171L19.5781 21.5583L18.17 10.0917L21.7588 13.9771L24.5792 12.1492C23.9827 11.0645 23.0519 9.75108 21.9637 8.87266C21.3457 8.37378 20.7096 8.04181 20.083 7.94259Z" fill="white"/>
<path d="M17.1171 3.76759L16.6666 10.7946L15.7676 10.737L16.218 3.70996L17.1171 3.76759Z" fill="#00FF4C"/>
</svg>
