<svg width="30" height="30" viewBox="0 0 30 30" fill="none" xmlns="http://www.w3.org/2000/svg">
<rect x="21" y="7.66895" width="1.33333" height="1.33333" fill="#818181"/>
<rect x="19.666" y="10.333" width="1.33333" height="1.33333" fill="#818181"/>
<rect x="18.332" y="6.33301" width="1.33333" height="1.33333" fill="#818181"/>
<rect x="18.332" y="7.66895" width="1.33333" height="1.33333" fill="#818181"/>
<rect x="18.332" y="9" width="1.33333" height="1.33333" fill="#818181"/>
<rect x="6.33398" y="22.3311" width="1.33333" height="1.33333" fill="#818181"/>
<rect x="7.66797" y="22.3311" width="1.33333" height="1.33333" fill="#818181"/>
<rect x="9" y="22.3311" width="1.33333" height="1.33333" fill="#818181"/>
<rect x="10.334" y="22.3311" width="1.33333" height="1.33333" fill="#818181"/>
<rect x="11.668" y="22.3311" width="1.33333" height="1.33333" fill="#818181"/>
<rect x="12.9961" y="22.3311" width="1.33333" height="1.33333" fill="#818181"/>
<rect x="14.332" y="22.3311" width="1.33333" height="1.33333" fill="#818181"/>
<rect x="15.668" y="22.3311" width="1.33333" height="1.33333" fill="#818181"/>
<rect x="15.668" y="21" width="1.33333" height="1.33333" fill="#818181"/>
<rect x="15.668" y="19.667" width="1.33333" height="1.33333" fill="#818181"/>
<rect x="22.332" y="9" width="1.33333" height="1.33333" fill="#818181"/>
<rect x="22.332" y="10.333" width="1.33333" height="1.33333" fill="#818181"/>
<rect x="21" y="10.333" width="1.33333" height="1.33333" fill="#818181"/>
<rect x="17.0039" y="18.333" width="1.33333" height="1.33333" fill="#818181"/>
<rect x="18.332" y="18.333" width="1.33333" height="1.33333" fill="#818181"/>
<rect x="19.666" y="18.333" width="1.33333" height="1.33333" fill="#818181"/>
<rect x="21" y="18.333" width="1.33333" height="1.33333" fill="#818181"/>
<rect x="22.332" y="18.333" width="1.33333" height="1.33333" fill="#818181"/>
<rect x="22.332" y="17.0049" width="1.33333" height="1.33333" fill="#818181"/>
<rect x="22.332" y="15.667" width="1.33333" height="1.33333" fill="#818181"/>
<rect x="22.332" y="14.333" width="1.33333" height="1.33333" fill="#818181"/>
<rect x="22.332" y="12.9951" width="1.33333" height="1.33333" fill="#818181"/>
<rect x="22.332" y="11.667" width="1.33333" height="1.33333" fill="#818181"/>
<rect x="19.666" y="6.33301" width="1.33333" height="1.33333" fill="#818181"/>
<rect x="18.332" y="10.333" width="1.33333" height="1.33333" fill="#818181"/>
<rect x="17.0039" y="6.33301" width="1.33333" height="1.33333" fill="#818181"/>
<rect x="15.668" y="6.33301" width="1.33333" height="1.33333" fill="#818181"/>
<rect x="14.332" y="6.33301" width="1.33333" height="1.33333" fill="#818181"/>
<rect x="12.9961" y="6.33301" width="1.33333" height="1.33333" fill="#818181"/>
<rect x="12.9961" y="7.66895" width="1.33333" height="1.33333" fill="#818181"/>
<rect x="12.9961" y="9" width="1.33333" height="1.33333" fill="#818181"/>
<rect x="10.334" y="10.333" width="1.33333" height="1.33333" fill="#818181"/>
<rect x="11.668" y="10.333" width="1.33333" height="1.33333" fill="#818181"/>
<rect x="12.9961" y="10.333" width="1.33333" height="1.33333" fill="#818181"/>
<rect x="9" y="10.333" width="1.33333" height="1.33333" fill="#818181"/>
<rect x="7.66797" y="10.333" width="1.33333" height="1.33333" fill="#818181"/>
<rect x="6.33398" y="10.333" width="1.33333" height="1.33333" fill="#818181"/>
<rect x="6.33398" y="11.667" width="1.33333" height="1.33333" fill="#818181"/>
<rect x="12.9961" y="11.667" width="1.33333" height="1.33333" fill="#818181"/>
<rect x="6.33398" y="12.9951" width="1.33333" height="1.33333" fill="#818181"/>
<rect x="12.9961" y="12.9951" width="1.33333" height="1.33333" fill="#818181"/>
<rect x="6.33398" y="14.333" width="1.33333" height="1.33333" fill="#818181"/>
<rect x="12.9961" y="14.333" width="1.33333" height="1.33333" fill="#818181"/>
<rect x="6.33398" y="15.667" width="1.33333" height="1.33333" fill="#818181"/>
<rect x="12.9961" y="15.667" width="1.33333" height="1.33333" fill="#818181"/>
<rect x="6.33398" y="17.0049" width="1.33333" height="1.33333" fill="#818181"/>
<rect x="12.9961" y="17.0049" width="1.33333" height="1.33333" fill="#818181"/>
<rect x="6.33398" y="18.333" width="1.33333" height="1.33333" fill="#818181"/>
<rect x="12.9961" y="18.333" width="1.33333" height="1.33333" fill="#818181"/>
<rect x="14.332" y="18.333" width="1.33333" height="1.33333" fill="#818181"/>
<rect x="15.668" y="18.333" width="1.33333" height="1.33333" fill="#818181"/>
<rect x="6.33398" y="19.667" width="1.33333" height="1.33333" fill="#818181"/>
<rect x="6.33398" y="21" width="1.33333" height="1.33333" fill="#818181"/>
</svg>
