<svg width="20" height="20" viewBox="0 0 20 20" fill="none" xmlns="http://www.w3.org/2000/svg">
<rect x="16.0002" y="2.6687" width="1.33333" height="1.33333" fill="#818181"/>
<rect x="14.667" y="5.33301" width="1.33333" height="1.33333" fill="#818181"/>
<rect x="13.3328" y="1.33325" width="1.33333" height="1.33333" fill="#818181"/>
<rect x="13.3328" y="2.6687" width="1.33333" height="1.33333" fill="#818181"/>
<rect x="13.3328" y="3.99976" width="1.33333" height="1.33333" fill="#818181"/>
<rect x="1.33325" y="17.3313" width="1.33333" height="1.33333" fill="#818181"/>
<rect x="2.6687" y="17.3313" width="1.33333" height="1.33333" fill="#818181"/>
<rect x="3.99976" y="17.3313" width="1.33333" height="1.33333" fill="#818181"/>
<rect x="5.33301" y="17.3313" width="1.33333" height="1.33333" fill="#818181"/>
<rect x="6.66724" y="17.3313" width="1.33333" height="1.33333" fill="#818181"/>
<rect x="7.99536" y="17.3313" width="1.33333" height="1.33333" fill="#818181"/>
<rect x="9.33276" y="17.3313" width="1.33333" height="1.33333" fill="#818181"/>
<rect x="10.6672" y="17.3313" width="1.33333" height="1.33333" fill="#818181"/>
<rect x="10.6672" y="16.0002" width="1.33333" height="1.33333" fill="#818181"/>
<rect x="10.6672" y="14.667" width="1.33333" height="1.33333" fill="#818181"/>
<rect x="17.3313" y="3.99976" width="1.33333" height="1.33333" fill="#818181"/>
<rect x="17.3313" y="5.33301" width="1.33333" height="1.33333" fill="#818181"/>
<rect x="16.0002" y="5.33301" width="1.33333" height="1.33333" fill="#818181"/>
<rect x="12.0046" y="13.3328" width="1.33333" height="1.33333" fill="#818181"/>
<rect x="13.3328" y="13.3328" width="1.33333" height="1.33333" fill="#818181"/>
<rect x="14.667" y="13.3328" width="1.33333" height="1.33333" fill="#818181"/>
<rect x="16.0002" y="13.3328" width="1.33333" height="1.33333" fill="#818181"/>
<rect x="17.3313" y="13.3328" width="1.33333" height="1.33333" fill="#818181"/>
<rect x="17.3313" y="12.0046" width="1.33333" height="1.33333" fill="#818181"/>
<rect x="17.3313" y="10.6672" width="1.33333" height="1.33333" fill="#818181"/>
<rect x="17.3313" y="9.33276" width="1.33333" height="1.33333" fill="#818181"/>
<rect x="17.3313" y="7.99536" width="1.33333" height="1.33333" fill="#818181"/>
<rect x="17.3313" y="6.66724" width="1.33333" height="1.33333" fill="#818181"/>
<rect x="14.667" y="1.33325" width="1.33333" height="1.33333" fill="#818181"/>
<rect x="13.3328" y="5.33301" width="1.33333" height="1.33333" fill="#818181"/>
<rect x="12.0046" y="1.33325" width="1.33333" height="1.33333" fill="#818181"/>
<rect x="10.6672" y="1.33325" width="1.33333" height="1.33333" fill="#818181"/>
<rect x="9.33276" y="1.33325" width="1.33333" height="1.33333" fill="#818181"/>
<rect x="7.99536" y="1.33325" width="1.33333" height="1.33333" fill="#818181"/>
<rect x="7.99536" y="2.6687" width="1.33333" height="1.33333" fill="#818181"/>
<rect x="7.99536" y="3.99976" width="1.33333" height="1.33333" fill="#818181"/>
<rect x="5.33301" y="5.33301" width="1.33333" height="1.33333" fill="#818181"/>
<rect x="6.66724" y="5.33301" width="1.33333" height="1.33333" fill="#818181"/>
<rect x="7.99536" y="5.33301" width="1.33333" height="1.33333" fill="#818181"/>
<rect x="3.99976" y="5.33301" width="1.33333" height="1.33333" fill="#818181"/>
<rect x="2.6687" y="5.33301" width="1.33333" height="1.33333" fill="#818181"/>
<rect x="1.33325" y="5.33301" width="1.33333" height="1.33333" fill="#818181"/>
<rect x="1.33325" y="6.66724" width="1.33333" height="1.33333" fill="#818181"/>
<rect x="7.99536" y="6.66724" width="1.33333" height="1.33333" fill="#818181"/>
<rect x="1.33325" y="7.99536" width="1.33333" height="1.33333" fill="#818181"/>
<rect x="7.99536" y="7.99536" width="1.33333" height="1.33333" fill="#818181"/>
<rect x="1.33325" y="9.33276" width="1.33333" height="1.33333" fill="#818181"/>
<rect x="7.99536" y="9.33276" width="1.33333" height="1.33333" fill="#818181"/>
<rect x="1.33325" y="10.6672" width="1.33333" height="1.33333" fill="#818181"/>
<rect x="7.99536" y="10.6672" width="1.33333" height="1.33333" fill="#818181"/>
<rect x="1.33325" y="12.0046" width="1.33333" height="1.33333" fill="#818181"/>
<rect x="7.99536" y="12.0046" width="1.33333" height="1.33333" fill="#818181"/>
<rect x="1.33325" y="13.3328" width="1.33333" height="1.33333" fill="#818181"/>
<rect x="7.99536" y="13.3328" width="1.33333" height="1.33333" fill="#818181"/>
<rect x="9.33276" y="13.3328" width="1.33333" height="1.33333" fill="#818181"/>
<rect x="10.6672" y="13.3328" width="1.33333" height="1.33333" fill="#818181"/>
<rect x="1.33325" y="14.667" width="1.33333" height="1.33333" fill="#818181"/>
<rect x="1.33325" y="16.0002" width="1.33333" height="1.33333" fill="#818181"/>
</svg>
