<svg width="20" height="20" viewBox="0 0 20 20" fill="none" xmlns="http://www.w3.org/2000/svg">
<rect x="17.3367" y="1.33008" width="1.33326" height="1.33334" fill="#818181"/>
<rect x="15.9961" y="2.66211" width="1.33326" height="1.33334" fill="#818181"/>
<rect x="14.6638" y="3.99902" width="1.33326" height="1.33334" fill="#818181"/>
<rect x="14.667" y="2.66992" width="1.33326" height="1.33334" fill="#818181"/>
<rect x="15.9993" y="4.00195" width="1.33326" height="1.33334" fill="#818181"/>
<rect y="15.9961" width="1.33326" height="1.33334" fill="#818181"/>
<rect y="17.3301" width="1.33326" height="1.33334" fill="#818181"/>
<rect y="18.668" width="1.33326" height="1.33334" fill="#818181"/>
<rect x="1.33008" y="18.668" width="1.33326" height="1.33334" fill="#818181"/>
<rect x="2.66357" y="18.668" width="1.33326" height="1.33334" fill="#818181"/>
<rect x="3.9917" y="12.0049" width="1.33326" height="1.33334" fill="#818181"/>
<rect x="2.66138" y="13.3359" width="1.33326" height="1.33334" fill="#818181"/>
<rect x="1.33008" y="14.668" width="1.33326" height="1.33334" fill="#818181"/>
<rect x="6.66431" y="14.666" width="1.33326" height="1.33334" fill="#818181"/>
<rect x="5.33008" y="15.998" width="1.33326" height="1.33334" fill="#818181"/>
<rect x="3.9978" y="17.3301" width="1.33326" height="1.33334" fill="#818181"/>
<rect x="18.6658" y="2.66211" width="1.33326" height="1.33334" fill="#818181"/>
<rect x="17.3367" y="4" width="1.33326" height="1.33334" fill="#818181"/>
<rect x="16.0002" y="5.33203" width="1.33326" height="1.33334" fill="#818181"/>
<rect x="13.3276" y="7.99414" width="1.33326" height="1.33334" fill="#818181"/>
<rect x="14.6638" y="6.66211" width="1.33326" height="1.33334" fill="#818181"/>
<rect x="11.9995" y="9.33203" width="1.33326" height="1.33334" fill="#818181"/>
<rect x="10.6641" y="10.666" width="1.33326" height="1.33334" fill="#818181"/>
<rect x="9.33179" y="12.0049" width="1.33326" height="1.33334" fill="#818181"/>
<rect x="7.99341" y="13.333" width="1.33326" height="1.33334" fill="#818181"/>
<rect x="15.9961" width="1.33326" height="1.33334" fill="#818181"/>
<rect x="15.9961" y="1.33008" width="1.33326" height="1.33334" fill="#818181"/>
<rect x="17.3367" y="2.66211" width="1.33326" height="1.33334" fill="#818181"/>
<rect x="14.6638" y="1.33008" width="1.33326" height="1.33334" fill="#818181"/>
<rect x="13.3276" y="2.66406" width="1.33326" height="1.33334" fill="#818181"/>
<rect x="10.6641" y="5.33203" width="1.33326" height="1.33334" fill="#818181"/>
<rect x="11.9963" y="4" width="1.33326" height="1.33334" fill="#818181"/>
<rect x="9.33179" y="6.66602" width="1.33326" height="1.33334" fill="#818181"/>
<rect x="7.99341" y="7.99414" width="1.33326" height="1.33334" fill="#818181"/>
<rect x="6.66431" y="9.33203" width="1.33326" height="1.33334" fill="#818181"/>
<rect x="5.33203" y="10.666" width="1.33326" height="1.33334" fill="#818181"/>
</svg>
