<svg width="30" height="30" viewBox="0 0 30 30" fill="none" xmlns="http://www.w3.org/2000/svg">
<rect x="22.3379" y="6.33008" width="1.33307" height="1.33336" fill="#818181"/>
<rect x="21" y="7.66211" width="1.33307" height="1.33336" fill="#818181"/>
<rect x="19.6719" y="8.99805" width="1.33307" height="1.33336" fill="#818181"/>
<rect x="19.6719" y="7.66895" width="1.33307" height="1.33336" fill="#818181"/>
<rect x="21" y="9.00195" width="1.33307" height="1.33336" fill="#818181"/>
<rect x="5" y="20.9961" width="1.33307" height="1.33336" fill="#818181"/>
<rect x="5" y="22.3359" width="1.33307" height="1.33336" fill="#818181"/>
<rect x="5" y="23.667" width="1.33307" height="1.33336" fill="#818181"/>
<rect x="6.33008" y="23.667" width="1.33307" height="1.33336" fill="#818181"/>
<rect x="7.66406" y="23.667" width="1.33307" height="1.33336" fill="#818181"/>
<rect x="8.99219" y="17.0049" width="1.33307" height="1.33336" fill="#818181"/>
<rect x="7.66211" y="18.3359" width="1.33307" height="1.33336" fill="#818181"/>
<rect x="6.33008" y="19.668" width="1.33307" height="1.33336" fill="#818181"/>
<rect x="11.666" y="19.666" width="1.33307" height="1.33336" fill="#818181"/>
<rect x="10.3262" y="20.9971" width="1.33307" height="1.33336" fill="#818181"/>
<rect x="8.99805" y="22.3359" width="1.33307" height="1.33336" fill="#818181"/>
<rect x="6.33203" y="22.3359" width="1.33307" height="1.33336" fill="#818181"/>
<rect x="7.66406" y="20.999" width="1.33307" height="1.33336" fill="#818181"/>
<rect x="23.666" y="7.66211" width="1.33307" height="1.33336" fill="#818181"/>
<rect x="22.3379" y="9" width="1.33307" height="1.33336" fill="#818181"/>
<rect x="21" y="10.332" width="1.33307" height="1.33336" fill="#818181"/>
<rect x="18.3281" y="12.9951" width="1.33307" height="1.33336" fill="#818181"/>
<rect x="19.6719" y="11.6621" width="1.33307" height="1.33336" fill="#818181"/>
<rect x="17" y="14.332" width="1.33307" height="1.33336" fill="#818181"/>
<rect x="15.6641" y="15.666" width="1.33307" height="1.33336" fill="#818181"/>
<rect x="14.332" y="17.0049" width="1.33307" height="1.33336" fill="#818181"/>
<rect x="12.9941" y="18.333" width="1.33307" height="1.33336" fill="#818181"/>
<rect x="21" y="5" width="1.33307" height="1.33336" fill="#818181"/>
<rect x="21" y="6.33008" width="1.33307" height="1.33336" fill="#818181"/>
<rect x="22.3379" y="7.66211" width="1.33307" height="1.33336" fill="#818181"/>
<rect x="19.6719" y="6.33008" width="1.33307" height="1.33336" fill="#818181"/>
<rect x="18.3281" y="7.66309" width="1.33307" height="1.33336" fill="#818181"/>
<rect x="15.6641" y="10.332" width="1.33307" height="1.33336" fill="#818181"/>
<rect x="16.9961" y="9" width="1.33307" height="1.33336" fill="#818181"/>
<rect x="14.332" y="11.667" width="1.33307" height="1.33336" fill="#818181"/>
<rect x="12.9941" y="12.9951" width="1.33307" height="1.33336" fill="#818181"/>
<rect x="11.666" y="14.332" width="1.33307" height="1.33336" fill="#818181"/>
<rect x="10.3262" y="15.666" width="1.33307" height="1.33336" fill="#818181"/>
</svg>
