<svg width="20" height="20" viewBox="0 0 20 20" fill="none" xmlns="http://www.w3.org/2000/svg">
<rect x="1.33374" y="17.3369" width="1.33332" height="1.33333" fill="#818181"/>
<rect x="2.66919" y="17.3369" width="1.33332" height="1.33333" fill="#818181"/>
<rect x="3.99829" y="17.3369" width="1.33332" height="1.33333" fill="#818181"/>
<rect x="5.33398" y="17.3369" width="1.33332" height="1.33333" fill="#818181"/>
<rect x="6.66577" y="17.3369" width="1.33332" height="1.33333" fill="#818181"/>
<rect x="7.99487" y="17.3369" width="1.33332" height="1.33333" fill="#818181"/>
<rect x="9.33325" y="17.3369" width="1.33332" height="1.33333" fill="#818181"/>
<rect x="10.667" y="17.3369" width="1.33332" height="1.33333" fill="#818181"/>
<rect x="10.667" y="14.667" width="1.33332" height="1.33333" fill="#818181"/>
<rect x="10.667" y="15.999" width="1.33332" height="1.33333" fill="#818181"/>
<rect x="10.667" y="4" width="1.33332" height="1.33333" fill="#818181"/>
<rect x="10.667" y="2.66309" width="1.33332" height="1.33333" fill="#818181"/>
<rect x="10.667" y="5.33301" width="1.33332" height="1.33333" fill="#818181"/>
<rect x="10.667" y="13.333" width="1.33332" height="1.33333" fill="#818181"/>
<rect x="5.33398" y="1.33203" width="1.33332" height="1.33333" fill="#818181"/>
<rect x="7.99487" y="1.33203" width="1.33332" height="1.33333" fill="#818181"/>
<rect x="9.33325" y="1.33203" width="1.33332" height="1.33333" fill="#818181"/>
<rect x="6.66577" y="1.33203" width="1.33332" height="1.33333" fill="#818181"/>
<rect x="10.667" y="1.33203" width="1.33332" height="1.33333" fill="#818181"/>
<rect x="3.99829" y="1.33203" width="1.33332" height="1.33333" fill="#818181"/>
<rect x="2.66919" y="1.33203" width="1.33332" height="1.33333" fill="#818181"/>
<rect x="1.33374" y="1.33203" width="1.33332" height="1.33333" fill="#818181"/>
<rect x="1.33374" y="4" width="1.33332" height="1.33333" fill="#818181"/>
<rect x="1.33374" y="2.66309" width="1.33332" height="1.33333" fill="#818181"/>
<rect x="1.33374" y="5.33301" width="1.33332" height="1.33333" fill="#818181"/>
<rect x="1.33374" y="6.66699" width="1.33332" height="1.33333" fill="#818181"/>
<rect x="1.33374" y="7.99512" width="1.33332" height="1.33333" fill="#818181"/>
<rect x="1.33374" y="9.33301" width="1.33332" height="1.33333" fill="#818181"/>
<rect x="6.66479" y="9.33301" width="1.33332" height="1.33333" fill="#818181"/>
<rect x="18.6682" y="9.33301" width="1.33332" height="1.33333" fill="#818181"/>
<rect x="17.3391" y="9.33301" width="1.33332" height="1.33333" fill="#818181"/>
<rect x="12.0054" y="9.33301" width="1.33332" height="1.33333" fill="#818181"/>
<rect x="15.998" y="9.33301" width="1.33332" height="1.33333" fill="#818181"/>
<rect x="10.666" y="9.33301" width="1.33332" height="1.33333" fill="#818181"/>
<rect x="14.6663" y="9.33301" width="1.33332" height="1.33333" fill="#818181"/>
<rect x="9.33325" y="9.33301" width="1.33332" height="1.33333" fill="#818181"/>
<rect x="13.3372" y="9.33301" width="1.33332" height="1.33333" fill="#818181"/>
<rect x="13.3372" y="9.33301" width="1.33332" height="1.33333" fill="#818181"/>
<rect x="8.00415" y="9.33301" width="1.33332" height="1.33333" fill="#818181"/>
<rect x="17.3391" y="10.667" width="1.33332" height="1.33333" fill="#818181"/>
<rect x="15.998" y="12.0049" width="1.33332" height="1.33333" fill="#818181"/>
<rect x="17.3391" y="7.99512" width="1.33332" height="1.33333" fill="#818181"/>
<rect x="15.998" y="6.66699" width="1.33332" height="1.33333" fill="#818181"/>
<rect x="1.33374" y="10.667" width="1.33332" height="1.33333" fill="#818181"/>
<rect x="1.33374" y="12.0049" width="1.33332" height="1.33333" fill="#818181"/>
<rect x="1.33374" y="13.333" width="1.33332" height="1.33333" fill="#818181"/>
<rect x="1.33374" y="14.667" width="1.33332" height="1.33333" fill="#818181"/>
<rect x="1.33374" y="15.999" width="1.33332" height="1.33333" fill="#818181"/>
</svg>
