<svg width="30" height="30" viewBox="0 0 30 30" fill="none" xmlns="http://www.w3.org/2000/svg">
<rect x="6.33398" y="22.3369" width="1.33332" height="1.33333" fill="#818181"/>
<rect x="7.66992" y="22.3369" width="1.33332" height="1.33333" fill="#818181"/>
<rect x="8.99805" y="22.3369" width="1.33332" height="1.33333" fill="#818181"/>
<rect x="10.334" y="22.3369" width="1.33332" height="1.33333" fill="#818181"/>
<rect x="11.666" y="22.3369" width="1.33332" height="1.33333" fill="#818181"/>
<rect x="12.9941" y="22.3369" width="1.33332" height="1.33333" fill="#818181"/>
<rect x="14.334" y="22.3369" width="1.33332" height="1.33333" fill="#818181"/>
<rect x="15.666" y="22.3369" width="1.33332" height="1.33333" fill="#818181"/>
<rect x="15.666" y="19.667" width="1.33332" height="1.33333" fill="#818181"/>
<rect x="15.666" y="20.999" width="1.33332" height="1.33333" fill="#818181"/>
<rect x="15.666" y="9" width="1.33332" height="1.33333" fill="#818181"/>
<rect x="15.666" y="7.66309" width="1.33332" height="1.33333" fill="#818181"/>
<rect x="15.666" y="10.333" width="1.33332" height="1.33333" fill="#818181"/>
<rect x="15.666" y="18.333" width="1.33332" height="1.33333" fill="#818181"/>
<rect x="10.334" y="6.33203" width="1.33332" height="1.33333" fill="#818181"/>
<rect x="12.9941" y="6.33203" width="1.33332" height="1.33333" fill="#818181"/>
<rect x="14.334" y="6.33203" width="1.33332" height="1.33333" fill="#818181"/>
<rect x="11.666" y="6.33203" width="1.33332" height="1.33333" fill="#818181"/>
<rect x="15.666" y="6.33203" width="1.33332" height="1.33333" fill="#818181"/>
<rect x="8.99805" y="6.33203" width="1.33332" height="1.33333" fill="#818181"/>
<rect x="7.66992" y="6.33203" width="1.33332" height="1.33333" fill="#818181"/>
<rect x="6.33398" y="6.33203" width="1.33332" height="1.33333" fill="#818181"/>
<rect x="6.33398" y="9" width="1.33332" height="1.33333" fill="#818181"/>
<rect x="6.33398" y="7.66309" width="1.33332" height="1.33333" fill="#818181"/>
<rect x="6.33398" y="10.333" width="1.33332" height="1.33333" fill="#818181"/>
<rect x="6.33398" y="11.667" width="1.33332" height="1.33333" fill="#818181"/>
<rect x="6.33398" y="12.9951" width="1.33332" height="1.33333" fill="#818181"/>
<rect x="6.33398" y="14.333" width="1.33332" height="1.33333" fill="#818181"/>
<rect x="11.6641" y="14.333" width="1.33332" height="1.33333" fill="#818181"/>
<rect x="23.668" y="14.333" width="1.33332" height="1.33333" fill="#818181"/>
<rect x="22.3398" y="14.333" width="1.33332" height="1.33333" fill="#818181"/>
<rect x="17.0059" y="14.333" width="1.33332" height="1.33333" fill="#818181"/>
<rect x="20.998" y="14.333" width="1.33332" height="1.33333" fill="#818181"/>
<rect x="15.666" y="14.333" width="1.33332" height="1.33333" fill="#818181"/>
<rect x="19.666" y="14.333" width="1.33332" height="1.33333" fill="#818181"/>
<rect x="14.334" y="14.333" width="1.33332" height="1.33333" fill="#818181"/>
<rect x="18.3379" y="14.333" width="1.33332" height="1.33333" fill="#818181"/>
<rect x="18.3379" y="14.333" width="1.33332" height="1.33333" fill="#818181"/>
<rect x="13.0039" y="14.333" width="1.33332" height="1.33333" fill="#818181"/>
<rect x="22.3398" y="15.667" width="1.33332" height="1.33333" fill="#818181"/>
<rect x="20.998" y="17.0049" width="1.33332" height="1.33333" fill="#818181"/>
<rect x="22.3398" y="12.9951" width="1.33332" height="1.33333" fill="#818181"/>
<rect x="20.998" y="11.667" width="1.33332" height="1.33333" fill="#818181"/>
<rect x="6.33398" y="15.667" width="1.33332" height="1.33333" fill="#818181"/>
<rect x="6.33398" y="17.0049" width="1.33332" height="1.33333" fill="#818181"/>
<rect x="6.33398" y="18.333" width="1.33332" height="1.33333" fill="#818181"/>
<rect x="6.33398" y="19.667" width="1.33332" height="1.33333" fill="#818181"/>
<rect x="6.33398" y="20.999" width="1.33332" height="1.33333" fill="#818181"/>
</svg>
