<svg width="30" height="30" viewBox="0 0 30 30" fill="none" xmlns="http://www.w3.org/2000/svg">
<rect width="1.33333" height="1.33333" transform="matrix(0.866032 -0.499988 0.500012 0.866018 18.7539 8.26562)" fill="#818181"/>
<rect width="1.33333" height="1.33333" transform="matrix(0.866032 -0.499988 0.500012 0.866018 20.5762 8.75586)" fill="#818181"/>
<rect x="21" y="5" width="1.33334" height="1.33332" fill="#818181"/>
<rect x="22.334" y="6.33301" width="1.33334" height="1.33332" fill="#818181"/>
<rect x="17" y="6.33301" width="1.33334" height="1.33332" fill="#818181"/>
<rect x="15.666" y="7.66309" width="1.33334" height="1.33332" fill="#818181"/>
<rect x="15.666" y="11.667" width="1.33334" height="1.33332" fill="#818181"/>
<rect x="13" y="14.333" width="1.33334" height="1.33332" fill="#818181"/>
<rect x="14.334" y="12.9951" width="1.33334" height="1.33332" fill="#818181"/>
<rect x="11.666" y="15.667" width="1.33334" height="1.33332" fill="#818181"/>
<rect x="10.3262" y="16.999" width="1.33334" height="1.33332" fill="#818181"/>
<rect x="8.99805" y="18.333" width="1.33334" height="1.33332" fill="#818181"/>
<rect x="7.66602" y="19.667" width="1.33334" height="1.33332" fill="#818181"/>
<rect x="6.33398" y="21" width="1.33334" height="1.33332" fill="#818181"/>
<rect x="5" y="22.3311" width="1.33334" height="1.33332" fill="#818181"/>
<rect x="6.33398" y="23.667" width="1.33334" height="1.33332" fill="#818181"/>
<rect x="5" y="23.667" width="1.33334" height="1.33332" fill="#818181"/>
<rect x="7.66602" y="22.3311" width="1.33334" height="1.33332" fill="#818181"/>
<rect x="14.334" y="19.665" width="1.33334" height="1.33332" fill="#818181"/>
<rect x="8.99805" y="21" width="1.33334" height="1.33332" fill="#818181"/>
<rect x="10.3262" y="19.667" width="1.33334" height="1.33332" fill="#818181"/>
<rect x="11.666" y="18.333" width="1.33334" height="1.33332" fill="#818181"/>
<rect x="8.99414" y="23.668" width="1.33334" height="1.33332" fill="#818181"/>
<rect x="13" y="16.999" width="1.33334" height="1.33332" fill="#818181"/>
<rect x="14.334" y="15.667" width="1.33334" height="1.33332" fill="#818181"/>
<rect x="15.666" y="14.333" width="1.33334" height="1.33332" fill="#818181"/>
<rect x="17" y="12.9951" width="1.33334" height="1.33332" fill="#818181"/>
<rect x="14.334" y="18.3359" width="1.33334" height="1.33332" fill="#818181"/>
<rect x="13.002" y="19.665" width="1.33334" height="1.33332" fill="#818181"/>
<rect x="18.3438" y="12.9951" width="1.33334" height="1.33332" fill="#818181"/>
<rect x="21" y="12.9951" width="1.33334" height="1.33332" fill="#818181"/>
<rect x="22.334" y="11.667" width="1.33334" height="1.33332" fill="#818181"/>
<rect x="23.666" y="10.333" width="1.33334" height="1.33332" fill="#818181"/>
<rect x="23.666" y="7.66309" width="1.33334" height="1.33332" fill="#818181"/>
<rect x="19.6719" y="5" width="1.33334" height="1.33332" fill="#818181"/>
<rect x="18.3438" y="5" width="1.33334" height="1.33332" fill="#818181"/>
<rect x="15.666" y="9" width="1.33334" height="1.33332" fill="#818181"/>
<rect x="15.666" y="10.333" width="1.33334" height="1.33332" fill="#818181"/>
<rect x="19.6719" y="12.9951" width="1.33334" height="1.33332" fill="#818181"/>
<rect x="23.666" y="9" width="1.33334" height="1.33332" fill="#818181"/>
<rect x="23.666" y="9" width="1.33334" height="1.33332" fill="#818181"/>
<rect width="1.33333" height="1.33333" transform="matrix(0.866032 -0.499988 0.500012 0.866018 20.0859 10.5791)" fill="#818181"/>
<rect width="1.33333" height="1.33333" transform="matrix(0.866032 -0.499988 0.500012 0.866018 19.4199 9.4209)" fill="#818181"/>
<rect width="1.33333" height="1.33333" transform="matrix(0.866032 -0.499988 0.500012 0.866018 18.2734 10.084)" fill="#818181"/>
</svg>
